# xmcd
#
# Track frame offsets: 
#        150
#        13362
#        26060
#        36707
#        49660
#        61787
#        72040
#        81587
#        94427
#        105100
#        114605
#        129877
#        141725
#        154740
#        164842
#        177732
#        188162
#        199905
#        210842
#        220612
#
# Disc length: 3127 seconds
#
# Revision: 1
# Processed by: cddbd v1.5.2PL0 Copyright (c) Steve Scherf et al.
# Submitted via: ExactAudioCopyFreeDBPlugin 1.0
#
DISCID=2d0c3514
DTITLE=Jim Reeves - The Legendary Jim Reeves
DYEAR=1900
DGENRE=Country
TTITLE0=Danny Boy
TTITLE1=I Can't Stop Loving You
TTITLE2=Am I That Easy To Forget
TTITLE3=Have I Told You Lately
TTITLE4=Maria Elena
TTITLE5=Making Believe
TTITLE6=Hawaiian Wedding Song
TTITLE7=Goodnight Irene
TTITLE8=He'll Have To Go
TTITLE9=Billy Bayou
TTITLE10=Blue Side Of Lonesome
TTITLE11=Welcome To My World
TTITLE12=Distant Drums
TTITLE13=Is It Really Over
TTITLE14=Four Walls
TTITLE15=Am I Losing You
TTITLE16=I Missed Me
TTITLE17=I Guess I'm Crazy
TTITLE18=I Won't Come In While He's There
TTITLE19=This Is It
EXTD=
EXTT0=
EXTT1=
EXTT2=
EXTT3=
EXTT4=
EXTT5=
EXTT6=
EXTT7=
EXTT8=
EXTT9=
EXTT10=
EXTT11=
EXTT12=
EXTT13=
EXTT14=
EXTT15=
EXTT16=
EXTT17=
EXTT18=
EXTT19=
PLAYORDER=
